# xmcd
# 
# Track frame offsets:
#     150
#     13125
#     24910
#     36207
#     48060
#     58962
#     70820
#     80910
#     91207
#     101720
#     112797
#     123412
#     135252
#     146645
#     157060
#     167915
#     180650
#     191060
#     202380
#     213010
#     223317
# 
# Disc length: 3117
# 
# Revision: 0
# Processed by: cddbd v1.5.2PL0 Copyright (c) Steve Scherf et al.
# Submitted via: fre:ac v1.0.27
# 
DISCID=360c2b15
DTITLE=Robert Johnson - The Complete Recordings [CD2]
DYEAR=1937
DGENRE=Blues
TTITLE0=Preachin' Blues (Up Jumped The Devil)
TTITLE1=If I Had Possession Over Judgment Day
TTITLE2=Stones In My Passway
TTITLE3=I'm A Steady Rollin' Man
TTITLE4=From Four Until Late
TTITLE5=Hell Hound On My Trail
TTITLE6=Little Queen Of Spades
TTITLE7=Little Queen Of Spades
TTITLE8=Malted Milk
TTITLE9=Drunken Hearted Man
TTITLE10=Drunken Hearted Man
TTITLE11=Me And The Devil Blues
TTITLE12=Me And The Devil Blues
TTITLE13=Stop Breakin' Down Blues
TTITLE14=Stop Breakin' Down Blues
TTITLE15=Traveling Riverside Blues
TTITLE16=Honeymoon Blues
TTITLE17=Love In Vain Blues
TTITLE18=Love In Vain Blues
TTITLE19=Milkcow's Calf Blues
TTITLE20=Milkcow's Calf Blues
EXTD=
EXTT0=
EXTT1=
EXTT2=
EXTT3=
EXTT4=
EXTT5=
EXTT6=
EXTT7=
EXTT8=
EXTT9=
EXTT10=
EXTT11=
EXTT12=
EXTT13=
EXTT14=
EXTT15=
EXTT16=
EXTT17=
EXTT18=
EXTT19=
EXTT20=
PLAYORDER=
